<?xml version="1.0" standalone="no"?>
<!DOCTYPE svg PUBLIC "-//W3C//DTD SVG 20010904//EN"
 "http://www.w3.org/TR/2001/REC-SVG-20010904/DTD/svg10.dtd">
<svg version="1.0" xmlns="http://www.w3.org/2000/svg"
 width="1123.000000pt" height="1123.000000pt" viewBox="0 0 1123.000000 1123.000000"
 preserveAspectRatio="xMidYMid meet">
<metadata>
Created by potrace 1.14, written by Peter Selinger 2001-2017
</metadata>
<g transform="translate(0.000000,1123.000000) scale(0.100000,-0.100000)"
fill="#000000" stroke="none">
<path d="M5675 8715 c-83 -51 -114 -147 -65 -200 45 -49 107 -78 172 -81 69
-4 99 7 120 44 51 86 0 193 -112 240 -53 22 -74 21 -115 -3z"/>
<path d="M3660 8540 c-52 -17 -120 -73 -120 -97 0 -7 -4 -13 -9 -13 -10 0 -27
-82 -24 -110 7 -52 14 -75 36 -113 35 -59 65 -89 202 -202 209 -174 333 -308
455 -490 83 -125 153 -215 164 -214 6 0 5 3 -1 6 -7 2 -13 9 -13 15 0 11 -69
192 -96 255 -8 17 -14 37 -14 45 0 8 -4 18 -8 23 -5 6 -21 44 -36 85 -15 41
-37 94 -47 117 -10 24 -19 49 -19 56 0 7 -6 21 -14 32 -7 11 -13 22 -13 25 1
5 -86 236 -103 275 -5 11 -21 51 -35 90 -55 149 -107 205 -209 224 -34 6 -58
4 -96 -9z"/>
<path d="M4898 8245 c-44 -24 -65 -132 -46 -245 3 -25 9 -63 13 -85 3 -22 8
-52 11 -67 3 -15 5 -30 5 -33 0 -2 5 -19 10 -37 5 -18 12 -49 15 -68 3 -19 7
-43 10 -52 3 -9 7 -27 9 -40 3 -13 9 -46 15 -74 6 -28 13 -64 16 -80 3 -16 7
-36 9 -44 9 -33 19 -139 19 -201 -1 -180 -130 -230 -342 -133 -40 19 -141 82
-157 99 -47 49 -45 34 3 -39 32 -48 59 -93 60 -99 0 -7 8 -32 17 -57 23 -61
15 -146 -19 -204 -14 -24 -33 -47 -43 -51 -31 -13 -103 -22 -103 -13 0 5 -4 7
-10 3 -12 -7 -114 44 -186 94 -72 50 -130 99 -266 227 -67 63 -76 59 -18 -6
47 -53 40 -45 123 -148 109 -136 227 -329 227 -370 0 -10 4 -22 9 -28 17 -17
23 -115 11 -159 -16 -56 -53 -75 -141 -70 -81 5 -113 10 -167 29 -23 8 -46 15
-50 16 -11 0 -44 10 -67 19 -11 4 -51 18 -90 29 -38 12 -90 28 -115 36 -198
62 -305 26 -269 -91 23 -74 115 -120 449 -224 74 -23 140 -45 145 -48 6 -4 28
-13 50 -20 22 -8 68 -32 102 -54 90 -59 114 -124 66 -179 -17 -19 -86 -57
-111 -61 -9 -1 -21 -5 -27 -9 -10 -6 -68 -20 -95 -23 -8 -1 -28 -4 -45 -8 -32
-7 -103 -18 -145 -22 -14 -2 -25 -4 -25 -5 0 -1 -13 -3 -30 -5 -44 -4 -136
-15 -165 -20 -14 -2 -46 -7 -73 -9 -26 -3 -75 -10 -110 -17 -34 -6 -73 -13
-87 -15 -86 -13 -177 -46 -214 -76 -63 -51 -38 -114 57 -143 58 -17 277 -12
417 10 25 4 56 9 70 10 14 1 44 6 67 9 55 9 96 14 163 22 30 4 69 8 85 11 45
7 297 7 320 0 11 -3 25 -6 30 -6 23 -2 67 -52 75 -85 4 -19 5 -38 2 -41 -3 -3
-7 -11 -8 -18 -6 -45 -54 -115 -126 -189 -104 -104 -146 -138 -349 -281 -65
-46 -67 -47 96 32 72 35 139 67 150 72 30 13 220 81 223 79 1 -1 28 4 60 11
117 24 220 8 263 -43 41 -47 12 -147 -84 -290 -34 -50 -66 -98 -72 -107 -13
-19 -27 -38 -40 -54 -24 -27 -125 -167 -125 -173 0 -3 -11 -20 -25 -38 -32
-42 -74 -138 -77 -175 -3 -42 25 -79 67 -87 62 -11 138 42 240 171 22 28 43
52 47 53 5 2 8 8 8 14 0 5 6 16 13 23 6 8 23 30 37 50 71 103 199 266 243 308
48 47 120 88 149 84 103 -16 145 -119 135 -329 -6 -114 -11 -168 -21 -223 -14
-81 -18 -103 -21 -135 -2 -19 -6 -47 -8 -62 -6 -36 8 -58 18 -28 4 12 9 30 10
39 2 9 4 17 5 19 2 1 3 5 5 10 1 4 5 19 9 33 4 14 9 32 10 40 2 8 6 21 9 29 4
8 18 49 33 90 52 151 131 295 200 368 35 37 64 63 64 58 0 -5 7 -2 16 5 19 15
108 20 144 7 28 -9 56 -49 64 -91 2 -14 14 -36 25 -48 17 -18 27 -20 78 -16
32 3 63 7 68 8 18 6 69 -17 102 -45 37 -31 120 -146 184 -256 24 -41 44 -77
44 -80 0 -3 9 -18 19 -35 36 -57 61 -100 75 -127 8 -15 22 -37 33 -47 10 -11
18 -24 18 -30 0 -12 108 -111 123 -112 7 -1 19 -2 27 -3 8 0 34 4 57 11 61 17
103 0 171 -68 64 -64 70 -71 109 -127 158 -224 198 -273 259 -308 40 -24 64
-26 106 -9 29 12 42 76 27 128 -6 18 -12 40 -14 50 -9 39 -111 254 -175 367
-41 72 -198 340 -228 388 -12 20 -27 46 -33 57 -5 11 -15 29 -22 40 -133 225
-167 286 -167 295 0 5 -3 10 -7 12 -8 3 -133 251 -138 272 -1 6 -5 18 -8 26
-28 73 -40 157 -25 167 5 2 6 8 3 13 -10 16 70 64 127 76 68 14 159 1 289 -41
45 -14 93 -25 107 -23 21 3 13 10 -58 57 -99 64 -161 127 -197 200 -55 110
-20 227 72 244 11 2 27 7 35 10 48 19 94 20 715 14 235 -2 273 1 345 22 41 12
61 26 83 59 25 38 5 78 -54 108 -27 13 -49 22 -49 20 0 -3 -15 0 -32 5 -62 17
-189 26 -480 34 -304 7 -466 26 -507 59 -8 6 -16 9 -18 6 -1 -3 -16 8 -33 23
-64 60 -25 159 90 231 33 21 131 65 155 71 5 1 17 5 25 8 8 4 58 20 110 36
177 54 199 77 64 66 -47 -3 -95 -8 -107 -11 -68 -13 -295 -3 -354 16 -5 1 -11
2 -15 1 -5 0 -8 3 -8 9 0 5 -9 10 -20 10 -11 0 -20 5 -20 10 0 6 -6 10 -13 10
-18 0 -56 45 -72 84 -32 80 -3 131 176 307 186 183 213 237 156 313 -62 80
-130 55 -318 -118 -80 -73 -103 -92 -149 -121 -96 -61 -199 -25 -192 68 2 40
89 181 173 280 13 17 47 56 101 118 328 381 419 531 375 626 -11 24 -55 54
-90 60 -57 10 -220 -125 -316 -259 -19 -27 -38 -48 -43 -48 -4 0 -8 -6 -8 -14
0 -8 -4 -16 -8 -18 -5 -1 -44 -50 -87 -108 -43 -58 -84 -112 -91 -120 -7 -8
-39 -46 -70 -85 -170 -210 -280 -285 -359 -246 -66 33 -127 116 -138 188 -3
18 -8 36 -11 41 -3 4 -8 46 -11 93 -6 103 -15 183 -21 188 -8 8 -12 -4 -17
-54 -6 -53 -12 -85 -22 -115 -3 -10 -7 -27 -9 -37 -9 -42 -66 -150 -97 -183
-53 -55 -99 -75 -161 -71 -58 4 -121 114 -164 286 -22 88 -43 184 -68 305 -19
91 -21 103 -35 160 -7 25 -14 55 -17 68 -7 34 -31 103 -53 153 -36 81 -90 112
-143 84z"/>
<path d="M5693 8108 c-12 -6 -25 -24 -29 -41 -5 -26 -2 -35 20 -54 25 -21 55
-29 81 -23 6 1 16 3 22 3 7 0 16 15 19 34 5 29 2 38 -25 63 -32 32 -52 35 -88
18z"/>
<path d="M2240 7771 c-134 -41 -275 -235 -250 -344 20 -92 123 -191 250 -241
25 -10 54 -20 65 -22 81 -15 114 -19 140 -18 52 2 105 14 135 29 117 61 153
250 72 379 -29 47 -121 137 -160 157 -15 8 -29 16 -32 20 -3 3 -35 15 -73 27
-70 23 -104 26 -147 13z"/>
<path d="M7172 7403 c-44 -9 -63 -76 -31 -116 38 -50 122 -23 127 41 2 23 -5
36 -29 56 -17 14 -34 25 -37 25 -4 -1 -17 -4 -30 -6z"/>
<path d="M3058 7003 c-15 -10 -37 -36 -49 -58 -21 -39 -21 -42 -5 -73 32 -61
150 -98 208 -64 67 39 40 149 -48 192 -49 24 -71 25 -106 3z"/>
<path d="M7990 6605 c-36 -14 -74 -29 -85 -34 -11 -5 -63 -26 -115 -46 -52
-21 -101 -42 -107 -47 -7 -6 -13 -8 -13 -5 0 6 -187 -67 -197 -76 -5 -6 5 -5
67 8 40 8 93 17 117 20 12 2 25 5 30 8 8 5 128 18 178 20 46 1 155 -13 174
-23 43 -22 122 -50 143 -50 92 0 93 167 3 226 -42 28 -123 27 -195 -1z"/>
<path d="M7060 5045 c0 -4 105 -109 233 -235 631 -619 567 -558 619 -583 80
-38 172 -15 239 62 48 55 67 95 72 159 10 120 -64 195 -205 207 -35 3 -90 7
-123 10 -185 15 -324 71 -617 250 -41 25 -171 107 -193 121 -14 9 -25 13 -25
9z"/>
<path d="M3670 4663 c-8 -3 -52 -23 -96 -44 -45 -22 -85 -39 -89 -39 -4 0 -21
-10 -38 -22 -18 -13 -32 -21 -32 -20 0 6 -48 -15 -170 -73 -140 -67 -167 -79
-177 -77 -5 1 -8 -2 -8 -8 0 -5 -5 -10 -10 -10 -23 0 -216 -99 -237 -121 -46
-51 -58 -131 -27 -192 21 -42 73 -96 104 -110 108 -45 181 0 249 155 34 76 54
112 96 167 36 48 217 221 231 221 4 0 12 6 18 13 6 8 55 46 109 87 53 40 97
74 97 76 0 4 1 5 -20 -3z"/>
<path d="M5575 4265 c-16 -8 -37 -20 -46 -27 -26 -21 -69 -103 -69 -130 0 -30
54 -108 75 -108 8 0 15 -3 15 -8 0 -18 108 -49 162 -46 72 5 120 55 120 128 0
52 -18 90 -64 132 -64 61 -140 84 -193 59z"/>
<path d="M4880 3400 c-257 -512 -269 -536 -275 -567 -13 -59 -12 -72 5 -111
35 -77 127 -74 208 7 67 65 109 162 127 286 3 23 7 52 10 65 3 13 7 42 10 65
3 22 10 63 15 90 11 57 18 105 26 155 2 19 7 46 9 60 3 14 8 45 11 70 3 25 8
54 11 65 11 51 26 165 22 164 -2 0 -83 -157 -179 -349z"/>
</g>
</svg>
