<?xml version='1.0' encoding='utf-8'?>
<svg xmlns="http://www.w3.org/2000/svg" width="210mm" height="297mm" version="1.1" viewBox="0 0 744.09448819 1052.3622047">
 <text transform="scale(1.1663 .85743)" x="128.89368" y="274.52148" fill="#000000" font-family="sans-serif" font-size="33.926px" letter-spacing="0px" stroke-width="1px" word-spacing="0px" style="line-height:125%"><tspan x="128.89368" y="274.52148" fill="#000000" font-family="'FFF Tusj'" font-weight="bold"/></text>
 <path d="m473 533.97c-7.6061 22.77 26.736 39.134 26.736 39.134 2.9365 8.4442-33.985-17.025-49.729 1.0927-15.744 18.117 93.055 155.71 74.128 170.52-18.927 14.807-40.795-57.684-62.336-46.995-21.54 10.689-42.148-74.283-65.349-68.032-23.201 6.2514-4.1744-16.407-28.159-14.73-23.985 1.6775-39.399 68.357-39.399 68.357-6.8007 4.4321 16.532-66.708-6.2954-74.255-22.828-7.547-53.598 76.299-74.493 64.44-20.896-11.858 53.097-71.277 34.988-87.037-18.109-15.759-80.941 20.937-80.941 20.937-5.6719 2.0032 62.602-36.505 51.808-57.993s-116.03 16.97-122.45-6.2076c-6.4139-23.177 112.63-13.864 111.03-37.832-1.6026-23.967-82.299-24.629-79.309-48.435 2.9895-23.806 77.41 25.39 85.069 2.6066 7.6595-22.783-34.503-65.878-39.314-72.644-1.4853-4.7354 45.69 50.543 61.482 32.417s-9.4897-44.792-12.016-47.354c-4.0389-4.0954 27.522 29.55 49.071 18.889s-23.428-105.65-0.30177-112.06c23.126-6.4129 20.967 101.99 44.949 100.18 23.981-1.8011 25.968-44.687 25.968-44.687 5.1125 3.1598-3.0765 42.343 19.727 49.85 22.803 7.507 72.229-95.942 93.131-84.06 32.922 14.338-71.49 91.703-53.444 107.5 18.046 15.798 45.088-42.082 59.786-23.074 14.698 19.009-41.633 38.138-30.82 59.58 10.814 21.443 61.428 8.5996 64.519 10.497 4.5486 5.7425-54.012 10.106-52.287 34.073 1.7258 23.967 116.86 2.7989 113.74 26.6-3.1128 23.801-111.88-4.0525-119.49 18.717z"/>
 <path d="m321.1 699.68-40.583 80.069c-14.944 29.485 22.035 33.302 28.607-6.8692z" fill-rule="evenodd"/>
 <path d="m504.84 577.24 75.613 74.019c27.844 27.257 60.296-35.824 12.315-35.579-33.638 0.17189-59.803-22.071-87.928-38.439z" fill-rule="evenodd"/>
 <path d="m543.97 453.75c20.953-2.8084 41.906-11.747 62.859-0.96359 20.584 10.594 16.628-30.595-9.8676-20.075z" fill-rule="evenodd"/>
 <path d="m255.46 369.25-39.54-102.02c-14.56-37.568-65.611-2.6859-26.808 28.232 49.863 39.73 45.401 49.829 66.348 73.787z" fill-rule="evenodd"/>
 <circle cx="520.56" cy="365.28" r="6.92"/>
 <path d="m43.908 331.88c-6.7141 7.0652-14.456 18.384-10.498 27.29 7.916 17.814 36.767 28.912 54.581 20.996 8.9069-3.958 12.978-17.865 10.498-27.291-3.9215-14.904-20.417-27.312-35.687-29.393-6.8289-0.93035-14.147 3.4002-18.894 8.3962z" fill-rule="evenodd"/>
 <path d="m130.97 397.56c-2.4237 2.5504-5.2184 6.6363-3.7897 9.8515 2.8576 6.4305 13.272 10.437 19.703 7.5794 3.2153-1.4288 4.685-6.4489 3.7897-9.8515-1.4156-5.38-7.3702-9.8593-12.882-10.61-2.4652-0.33614-5.1067 1.2274-6.8206 3.0309z" fill-rule="evenodd"/>
 <path d="m374.94 237.99c-3.2282 3.3969-6.9506 8.8388-5.0476 13.121 3.8061 8.5649 17.678 13.901 26.243 10.095 4.2824-1.903 6.24-8.5893 5.0475-13.121-1.8855-7.1656-9.8164-13.132-17.158-14.132-3.2834-0.44692-6.8017 1.6348-9.0845 4.0369z" fill-rule="evenodd"/>
 <path d="m589.93 357.23a38.198 19.099 0 0 1 -1.0753 4.4998"/>
 <path d="m379.01 293.22c-1.4234 1.4977-3.0646 3.8971-2.2256 5.7854 1.6782 3.7764 7.7944 6.1292 11.571 4.4511 1.8881-0.83906 2.7513-3.7872 2.2255-5.7854-0.83135-3.1594-4.3282-5.7899-7.5653-6.231-1.4477-0.1971-2.999 0.72042-4.0055 1.78z" fill-rule="evenodd"/>
 <path d="m364 655.92c-3.5229 3.7071-7.5852 9.6459-5.5084 14.319 4.1536 9.347 19.292 15.17 28.639 11.017 4.6735-2.0768 6.8098-9.3736 5.5084-14.319-2.0576-7.8199-10.713-14.331-18.725-15.422-3.5832-0.48816-7.4228 1.7841-9.914 4.4055z" fill-rule="evenodd"/>
 <path d="m194.47 613.4-78.422 36.609c-28.878 13.481 10.09 56.471 23.701 19.662 9.5424-25.806 34.099-39.444 54.721-56.271z" fill-rule="evenodd"/>
</svg>